# xmcd
#
# Track frame offsets: 
#        150
#        19514
#        42322
#        57668
#        77616
#        94905
#        116134
#        134164
#        150640
#        175515
#        195984
#        218454
#
# Disc length: 3217 seconds
#
# Revision: 2
# Processed by: cddbd v1.5.2PL0 Copyright (c) Steve Scherf et al.
# Submitted via: ExactAudioCopy v1.0b1
#
DISCID=9b0c8f0c
DTITLE=The Kentucky Headhunters - Songs From The Grass String Ranch
DYEAR=2000
DGENRE=Country Rock
TTITLE0=Grass String Ranch
TTITLE1=Back To The Sun
TTITLE2=Jessico
TTITLE3=Once In A While
TTITLE4=Love That Woman
TTITLE5=Too Much To Lose
TTITLE6=Louisianna CoCo
TTITLE7=Country Life
TTITLE8=Dry-Land Fish
TTITLE9=The Dreamin' Kind
TTITLE10=I Wish I Knew
TTITLE11=Rock On
EXTD=
EXTT0=
EXTT1=
EXTT2=
EXTT3=
EXTT4=
EXTT5=
EXTT6=
EXTT7=
EXTT8=
EXTT9=
EXTT10=
EXTT11=
PLAYORDER=
